<svg width="237" height="44" viewBox="0 0 237 44" fill="none" xmlns="http://www.w3.org/2000/svg">
<path d="M75.9129 10.6247L75.6946 12.5922C75.6461 13.028 75.5976 13.6008 75.5491 14.3231L75.452 15.7053L75.2822 15.8921H74.312L74.1422 15.7177C74.118 14.1612 74.0331 13.2771 73.8754 13.0529C73.6207 12.6918 72.0562 12.5175 69.1819 12.5175C68.721 12.5175 67.9933 12.5548 67.011 12.6171C66.8897 13.7876 66.829 15.9045 66.829 18.9429V21.2715L68.7331 21.3213C69.3032 21.3337 70.3704 21.3088 71.9107 21.2466C72.2139 21.2341 72.42 21.147 72.5171 20.9851C72.6869 20.7111 72.7839 19.9515 72.8203 18.7063L72.9901 18.532H74.0331L74.2029 18.7063C74.1543 20.0013 74.1422 21.1719 74.1422 22.2552C74.1422 23.4133 74.1665 24.6959 74.2029 26.0781L74.0331 26.2275H72.9052L72.7354 26.0532C72.7354 24.8453 72.6869 24.1355 72.5898 23.9238C72.3958 23.5254 71.8258 23.2763 70.8555 23.2016C70.2006 23.1393 69.5457 23.1144 68.9029 23.1144C68.1267 23.1144 67.4354 23.1269 66.829 23.1642V27.2735C66.829 30.0006 66.9018 31.7937 67.0474 32.628C67.108 32.9643 67.302 33.1759 67.6174 33.2631C67.6901 33.288 68.5027 33.3378 70.0187 33.4374L70.1885 33.6118V34.7698L70.0066 34.9442L63.2392 34.8446C62.2689 34.8321 60.9348 34.8695 59.2369 34.9442L59.0671 34.7948V33.6242L59.2369 33.4499C60.377 33.3752 61.044 33.3254 61.2017 33.2756C61.5291 33.1884 61.7232 32.9643 61.7717 32.6405C61.9172 31.7937 61.99 30.013 61.99 27.286V18.1459C61.99 15.4189 61.9172 13.6257 61.7717 12.7914C61.711 12.4552 61.5291 12.2435 61.2017 12.1563C61.0319 12.1065 60.377 12.0567 59.2369 11.982L59.0671 11.8077V10.6496L59.2369 10.5002C60.2921 10.5624 62.0142 10.5874 64.3913 10.5874C65.9316 10.5874 69.7034 10.55 75.731 10.4877L75.9129 10.6247Z" fill="white"/>
<path d="M87.7134 34.8197L87.5436 34.994C86.4764 34.9193 84.9361 34.8695 82.935 34.8695C80.9339 34.8695 79.3936 34.9068 78.3385 34.994L78.1687 34.8197V33.7612L78.3385 33.5869C79.4179 33.5495 80.0849 33.4624 80.3396 33.3254C80.57 33.2258 80.6913 32.9394 80.7035 32.4911C80.7762 30.9968 80.8247 29.3904 80.8247 27.672V25.2065C80.8247 22.9775 80.7398 21.6451 80.57 21.2341C80.4852 21.01 80.2426 20.8606 79.8424 20.7983C79.709 20.7734 79.2238 20.7485 78.3749 20.7112L78.2051 20.5368V19.5655L78.3749 19.3787C80.5337 19.1795 82.7046 18.7063 84.8876 17.9467L85.2393 18.1709C85.0938 20.2629 85.021 22.0311 85.021 23.4756V28.992C85.021 29.8387 85.0574 30.9968 85.1423 32.5035C85.1666 32.9518 85.2878 33.2258 85.5061 33.3378C85.7608 33.4748 86.4279 33.562 87.5073 33.5993L87.6892 33.7737V34.8197H87.7134ZM85.3849 12.2684C85.3849 13.0031 85.1302 13.6382 84.6329 14.1612C84.1357 14.6842 83.5172 14.9457 82.8137 14.9457C82.0982 14.9457 81.4796 14.6842 80.9824 14.1612C80.4851 13.6382 80.2305 13.0031 80.2305 12.2684C80.2305 11.5089 80.4852 10.8738 80.9945 10.3508C81.5039 9.82778 82.1103 9.57874 82.8137 9.57874C83.505 9.57874 84.1114 9.84023 84.6208 10.3508C85.1302 10.8738 85.3849 11.5089 85.3849 12.2684Z" fill="white"/>
<path d="M102.049 18.1833L101.927 21.259C101.915 21.7696 101.891 22.3424 101.855 22.9899L101.151 23.2141C100.618 22.4296 99.8899 22.0435 98.9682 22.0435C98.1314 22.0435 97.4279 22.3922 96.8822 23.0771C96.5426 23.5005 96.3728 24.1355 96.3728 24.9574V29.0044C96.3728 29.8512 96.4092 31.0093 96.4941 32.516C96.5183 32.9394 96.6396 33.2133 96.8458 33.3503C97.0641 33.4748 97.8403 33.562 99.1865 33.6118L99.3563 33.7612V34.8197L99.1865 34.994C97.5371 34.9193 95.8998 34.8944 94.2747 34.8944C92.2614 34.8944 90.7333 34.9317 89.6782 35.0189L89.5084 34.8446V33.7861L89.6782 33.6118C90.7575 33.5744 91.4246 33.4873 91.6793 33.3503C91.8976 33.2507 92.031 32.9643 92.0431 32.516C92.1159 31.0217 92.1644 29.4153 92.1644 27.6969V25.2314C92.1644 22.9277 92.0795 21.6077 91.9097 21.259C91.8006 21.0349 91.558 20.8855 91.182 20.8232C91.0486 20.7983 90.5635 20.7734 89.7145 20.736L89.5447 20.5617V19.5904L89.7145 19.4036C91.7399 19.2044 93.8623 18.7312 96.0939 17.9716L96.4698 18.1958L96.4334 21.5828C97.1247 20.7485 97.9737 19.7897 98.9561 18.6814C99.4169 18.2207 100.048 17.9841 100.836 17.9841C101.321 17.9716 101.721 18.0339 102.049 18.1833Z" fill="white"/>
<path d="M116.202 29.4403C116.202 31.2957 115.523 32.79 114.152 33.9232C112.794 35.0563 111.011 35.6291 108.804 35.6291C107.24 35.6291 105.578 35.2805 103.783 34.5956L103.601 34.3341C103.698 33.2756 103.759 32.4538 103.783 31.8685L103.868 29.6894L104.038 29.5026H105.032L105.238 29.6894C105.287 30.9844 105.335 31.744 105.384 31.9681C106.342 33.2258 107.591 33.8484 109.131 33.8484C110.114 33.8484 110.914 33.5994 111.509 33.1013C112.103 32.6032 112.394 31.9432 112.394 31.1089C112.394 30.0629 111.945 29.3656 111.048 29.0169C110.672 28.8675 109.908 28.6683 108.78 28.4317C106.924 28.0332 105.687 27.5725 105.056 27.0495C104.098 26.265 103.625 25.1069 103.625 23.5752C103.625 21.9066 104.207 20.5618 105.396 19.5531C106.633 18.4947 108.295 17.9592 110.405 17.9592C112.2 17.9592 113.692 18.2705 114.88 18.8932L115.026 19.1671C114.904 19.6901 114.807 21.0101 114.735 23.1643L114.553 23.3387H113.595L113.413 23.1643C113.364 22.33 113.291 21.6576 113.17 21.147C112.467 20.2256 111.436 19.7648 110.09 19.7648C109.216 19.7648 108.501 19.989 107.931 20.4248C107.373 20.8606 107.082 21.4334 107.082 22.1557C107.082 23.1145 107.555 23.7496 108.513 24.0733C108.937 24.2103 109.774 24.4096 110.999 24.6586C112.879 25.0446 114.128 25.4805 114.735 25.9661C115.729 26.7381 116.202 27.8962 116.202 29.4403Z" fill="white"/>
<path d="M128.585 32.6032C128.512 32.6904 128.269 32.9394 127.857 33.3255C127.202 33.973 126.632 34.5582 126.159 35.0937C125.613 35.2805 125.056 35.3677 124.485 35.3677C122.921 35.3677 121.793 34.9069 121.065 33.973C120.762 33.5745 120.556 33.1013 120.459 32.5783C120.35 31.9432 120.301 31.1214 120.313 30.0878L120.362 25.9537V21.6327H119.901L119.004 21.67H118.312L118.13 21.5206V21.0723L118.264 20.8108C118.47 20.6739 118.785 20.4622 119.21 20.1882C119.719 19.8645 120.095 19.5905 120.362 19.3788V17.0253C120.362 16.0416 120.313 15.008 120.229 13.9122C121.065 13.6383 121.757 13.3892 122.278 13.1775C122.8 12.9658 123.54 12.6172 124.485 12.1315L124.922 12.4802C124.789 13.9122 124.692 15.1824 124.631 16.3155L124.485 19.3041H125.043C126.268 19.3041 127.323 19.2667 128.209 19.1796L128.391 19.3664L128.148 21.3836L127.978 21.558H124.473V27.4106C124.473 29.2909 124.498 30.3992 124.546 30.7229C124.595 31.2086 124.801 31.5946 125.14 31.8934C125.48 32.1923 125.941 32.3417 126.523 32.3417C126.984 32.3417 127.542 32.2172 128.197 31.9557L128.585 32.6032Z" fill="white"/>
<path d="M152.671 31.8436L151.895 33.6118C149.53 34.9442 146.886 35.6166 143.951 35.6166C138.093 35.6166 134.091 33.4499 131.932 29.1165C130.938 27.1117 130.44 24.945 130.44 22.6039C130.44 18.8309 131.665 15.8174 134.115 13.5635C136.613 11.2474 140.034 10.0893 144.363 10.0893C147.116 10.0893 149.797 10.5998 152.428 11.6209L152.647 11.8824C152.271 13.4763 152.028 15.3317 151.943 17.4611L151.798 17.6354H150.803L150.633 17.4486C150.597 16.054 150.536 15.0827 150.452 14.5472C149.045 12.9284 147.019 12.1066 144.375 12.1066C141.647 12.1066 139.512 12.9907 137.96 14.7714C136.407 16.5396 135.631 18.9554 135.631 21.9938C135.631 26.103 137.014 29.2659 139.767 31.4576C141.234 32.6281 143.211 33.2258 145.673 33.2258C147.917 33.2258 150.112 32.6281 152.259 31.4451L152.671 31.8436Z" fill="white"/>
<path d="M170.196 34.7699L170.014 34.9567C169.068 34.8944 167.989 34.8695 166.764 34.8695C165.806 34.8695 164.896 34.8944 164.023 34.9567L163.877 34.7699L164.023 32.4538L160.76 35.0065C160.506 35.2058 160.13 35.3178 159.645 35.3676C159.45 35.3925 159.232 35.405 158.977 35.405C157.728 35.405 156.77 35.019 156.103 34.2469C155.436 33.4749 155.109 32.404 155.109 31.0467C155.109 29.2535 155.667 27.9709 156.77 27.2238C157.971 26.4019 160.384 25.6672 164.023 25.0073C164.023 23.1768 163.55 21.944 162.604 21.3214C162.034 20.9353 161.342 20.7486 160.554 20.7486C159.681 20.7486 158.99 20.9353 158.48 21.2965L157.837 22.9028L157.619 23.0273L156.758 22.8156L156.637 22.5791L156.722 20.5369C158.577 19.1297 159.96 18.3328 160.894 18.146C161.282 18.0713 161.791 18.0215 162.422 18.0215C164.629 18.0215 166.206 18.6192 167.152 19.8022C167.831 20.6614 168.183 21.9938 168.183 23.7745C168.183 24.2103 168.17 24.9201 168.134 25.8789C168.086 27.4977 168.049 28.5686 168.049 29.1041C168.049 30.8474 168.073 31.9557 168.134 32.4289C168.195 32.9021 168.328 33.2134 168.534 33.3379C168.741 33.4624 169.238 33.5371 170.026 33.562L170.196 33.7488V34.7699ZM164.023 30.7354V26.4891C162.167 26.9 160.918 27.3483 160.275 27.834C159.632 28.3071 159.305 29.0418 159.305 30.0256C159.305 31.5946 159.972 32.3791 161.306 32.3791C162.446 32.3666 163.344 31.8187 164.023 30.7354Z" fill="white"/>
<path d="M185.113 29.4403C185.113 31.2957 184.434 32.79 183.064 33.9232C181.705 35.0563 179.922 35.6291 177.715 35.6291C176.151 35.6291 174.489 35.2805 172.706 34.5956L172.524 34.3341C172.621 33.2756 172.682 32.4538 172.706 31.8685L172.791 29.6894L172.961 29.5026H173.956L174.162 29.6894C174.21 30.9844 174.259 31.744 174.307 31.9681C175.265 33.2258 176.515 33.8484 178.067 33.8484C179.049 33.8484 179.838 33.5994 180.444 33.1013C181.038 32.6032 181.341 31.9432 181.341 31.1089C181.341 30.0629 180.893 29.3656 179.995 29.0169C179.607 28.8675 178.855 28.6683 177.715 28.4317C175.86 28.0332 174.623 27.5725 173.992 27.0495C173.034 26.265 172.561 25.1069 172.561 23.5752C172.561 21.9066 173.155 20.5618 174.332 19.5531C175.569 18.4947 177.242 17.9592 179.352 17.9592C181.147 17.9592 182.639 18.2705 183.828 18.8932L183.973 19.1671C183.852 19.6901 183.755 21.0101 183.694 23.1643L183.512 23.3387H182.554L182.372 23.1643C182.324 22.33 182.251 21.6576 182.142 21.147C181.439 20.2256 180.408 19.7648 179.061 19.7648C178.188 19.7648 177.473 19.989 176.903 20.4248C176.333 20.8606 176.066 21.4334 176.066 22.1557C176.066 23.1145 176.539 23.7496 177.497 24.0733C177.921 24.2103 178.758 24.4096 179.983 24.6586C181.863 25.0446 183.112 25.4805 183.719 25.9661C184.64 26.7381 185.113 27.8962 185.113 29.4403Z" fill="white"/>
<path d="M196.805 34.8197L196.635 34.994C195.568 34.9193 194.027 34.8695 192.026 34.8695C190.025 34.8695 188.485 34.9068 187.43 34.994L187.26 34.8197V33.7612L187.43 33.5869C188.509 33.5495 189.176 33.4624 189.431 33.3254C189.661 33.2258 189.783 32.9394 189.795 32.4911C189.867 30.9968 189.916 29.3904 189.916 27.672V25.2065C189.916 22.9775 189.831 21.6451 189.661 21.2341C189.576 21.01 189.334 20.8606 188.934 20.7983C188.8 20.7734 188.315 20.7485 187.466 20.7112L187.296 20.5368V19.5655L187.466 19.3787C189.625 19.1795 191.796 18.7063 193.979 17.9467L194.331 18.1709C194.185 20.2629 194.112 22.0311 194.112 23.4756V28.992C194.112 29.8387 194.149 30.9968 194.234 32.5035C194.258 32.9518 194.379 33.2258 194.597 33.3378C194.852 33.4748 195.519 33.562 196.598 33.5993L196.78 33.7737V34.8197H196.805ZM194.488 12.2684C194.488 13.0031 194.234 13.6382 193.736 14.1612C193.239 14.6842 192.621 14.9457 191.917 14.9457C191.202 14.9457 190.583 14.6842 190.086 14.1612C189.589 13.6382 189.334 13.0031 189.334 12.2684C189.334 11.5089 189.589 10.8738 190.098 10.3508C190.607 9.82778 191.214 9.57874 191.917 9.57874C192.608 9.57874 193.215 9.84023 193.724 10.3508C194.234 10.8738 194.488 11.5089 194.488 12.2684Z" fill="white"/>
<path d="M218.101 34.8072L217.932 34.994C216.695 34.9193 215.652 34.8695 214.803 34.8695C214.014 34.8695 212.874 34.9068 211.37 34.994L211.201 34.8197C211.407 32.2545 211.504 30.2746 211.504 28.8799V25.4929C211.504 22.6786 210.521 21.2715 208.545 21.2715C207.514 21.2715 206.701 21.6326 206.119 22.3549C205.622 22.965 205.379 23.5876 205.379 24.1978V27.4354C205.379 30.424 205.452 32.2545 205.597 32.9269C205.682 33.3254 206.337 33.5495 207.55 33.562L207.72 33.7363V34.7948L207.55 34.9691C206.592 34.8944 205.173 34.8695 203.281 34.8695C201.268 34.8695 199.74 34.9068 198.684 34.994L198.515 34.8197V33.7612L198.684 33.5869C199.764 33.5495 200.431 33.4624 200.686 33.3254C200.916 33.2258 201.037 32.9394 201.062 32.4911C201.134 30.9968 201.183 29.3904 201.183 27.672V25.2064C201.183 22.9028 201.098 21.5828 200.928 21.2341C200.819 21.01 200.576 20.8606 200.2 20.7983C200.067 20.7734 199.582 20.7485 198.733 20.7111L198.563 20.5368V19.5655L198.733 19.3787C200.758 19.1795 202.881 18.7063 205.112 17.9467L205.488 18.1709L205.452 21.0723L208.35 18.5818C209.09 18.2705 209.903 18.121 210.788 18.121C212.571 18.121 213.905 18.669 214.79 19.7772C215.506 20.6738 215.87 21.9937 215.87 23.7371C215.87 23.9363 215.846 24.7333 215.797 26.1404C215.749 27.5475 215.736 28.5437 215.736 29.1414C215.736 30.8847 215.761 31.993 215.821 32.4662C215.882 32.9394 216.003 33.2507 216.209 33.3752C216.416 33.4997 216.998 33.5744 217.956 33.5993L218.101 33.7737V34.8072Z" fill="white"/>
<path d="M236.609 26.3023C236.609 30.3742 235.275 33.1386 232.606 34.5831C231.309 35.2804 229.817 35.6415 228.143 35.6415C225.56 35.6415 223.595 34.8695 222.249 33.3378C220.891 31.8062 220.224 29.6146 220.224 26.7505C220.224 22.8031 221.534 20.1632 224.165 18.8557C225.451 18.2082 226.955 17.8845 228.665 17.8845C232.243 17.8845 234.62 19.1546 235.784 21.7073C236.33 22.9277 236.609 24.4593 236.609 26.3023ZM231.952 27.7218C231.952 24.8578 231.648 22.8031 231.03 21.5579C230.411 20.3251 229.477 19.7025 228.228 19.7025C225.997 19.7025 224.881 21.7696 224.881 25.9038C224.881 31.2209 226.13 33.8733 228.628 33.8733C230.193 33.8733 231.187 32.9892 231.612 31.2334C231.842 30.2995 231.952 29.1289 231.952 27.7218Z" fill="white"/>
<path d="M20.0393 -0.370728C19.3965 -0.370728 18.7416 -0.221299 18.2443 0.0775577L2.24751 9.57871C1.24089 10.1764 1.24089 11.1104 2.24751 11.7081L18.2565 21.2092C19.2631 21.8069 20.8397 21.8069 21.8463 21.2092L37.8553 11.7081C38.8619 11.1104 38.8619 10.1764 37.8553 9.57871L21.8463 0.0775577C21.337 -0.221299 20.6942 -0.370728 20.0393 -0.370728ZM20.2333 0.961676C21.0701 0.986581 21.8585 1.19827 22.4527 1.55939C23.7504 2.36879 23.7262 3.65139 22.4042 4.44834C21.1065 5.23284 19.0205 5.23284 17.7107 4.44834C16.4009 3.65139 16.4009 2.35634 17.7107 1.55939C18.3899 1.16091 19.2995 0.936771 20.2333 0.961676ZM26.3579 4.7472C28.2014 4.75965 29.681 5.69358 29.6568 6.81429C29.6446 7.34974 29.2929 7.84784 28.6744 8.22141C27.3646 9.01836 25.2422 9.01836 23.9445 8.22141C22.6347 7.42446 22.6347 6.12941 23.9445 5.33246C24.5873 4.95889 25.4483 4.7472 26.3579 4.7472ZM7.75362 8.52026C8.59045 8.53272 9.37877 8.74441 9.97304 9.10553C11.2829 9.90248 11.2829 11.1975 9.97304 11.9945C8.66322 12.7914 6.54082 12.7914 5.24312 11.9945C3.9333 11.1975 3.9333 9.90248 5.24312 9.10553C5.89804 8.70705 6.80763 8.49536 7.75362 8.52026ZM32.6766 8.54517C33.5135 8.57007 34.3018 8.78176 34.896 9.14288C36.1937 9.93983 36.1937 11.2349 34.8718 12.0318C33.562 12.8163 31.4638 12.8163 30.154 12.0318C28.8442 11.2349 28.8442 9.93983 30.154 9.14288C30.821 8.73195 31.7428 8.52026 32.6766 8.54517ZM13.9146 12.3307C15.7581 12.3431 17.2377 13.2771 17.2134 14.3978C17.2013 14.9332 16.8496 15.4313 16.2311 15.8049C14.9334 16.6143 12.811 16.6268 11.5012 15.8298C10.1792 15.0453 10.1671 13.7503 11.4527 12.9409C11.4648 12.9284 11.4769 12.9284 11.5012 12.9159C12.1439 12.5424 13.0172 12.3182 13.9146 12.3307ZM1.16812 13.5137C0.57385 13.5012 0.161499 13.9744 0.161499 14.8336V31.7937C0.161499 32.9767 0.949818 34.3963 1.95644 34.9815L17.3469 44.1091C18.3535 44.7068 19.1418 44.2337 19.1418 43.0507V26.0906C19.1418 24.9076 18.3535 23.488 17.3469 22.9028L1.95644 13.7752C1.6775 13.6008 1.41068 13.5261 1.16812 13.5137ZM38.9711 13.5137C38.7406 13.5261 38.4738 13.6008 38.1827 13.7752L22.7923 22.9028C21.7857 23.5005 20.9974 24.9076 20.9974 26.0906V43.0507C20.9974 44.2337 21.7857 44.7068 22.7923 44.1091L38.1827 34.9815C39.1894 34.3838 39.9777 32.9767 39.9777 31.7937V14.8336C39.9777 13.9869 39.5774 13.5012 38.9711 13.5137ZM2.59922 15.8672C3.72713 15.7924 5.17036 17.075 5.82527 18.7437C6.03144 19.2791 6.1406 19.8146 6.1406 20.2878C6.1406 21.7696 5.08546 22.3548 3.78777 21.5828C2.49007 20.8108 1.43494 18.9803 1.42281 17.4984C1.42281 17.4984 1.42281 17.4984 1.42281 17.486C1.42281 16.552 1.87154 15.9294 2.59922 15.8672ZM37.5399 15.8672C38.2676 15.917 38.7164 16.5396 38.7164 17.4984C38.7164 18.9803 37.6612 20.8108 36.3514 21.5828C35.0537 22.3548 33.9986 21.7696 33.9986 20.2878C33.9986 18.8059 35.0537 16.9754 36.3514 16.2034C36.7759 15.9668 37.1761 15.8423 37.5399 15.8672ZM20.2333 16.1162C21.0701 16.1411 21.8585 16.3528 22.4527 16.7139C23.7504 17.5233 23.7262 18.8059 22.4042 19.6029C21.1065 20.3874 19.0205 20.3874 17.7107 19.6029C16.4009 18.8059 16.4009 17.5109 17.7107 16.7139C18.3899 16.3154 19.2995 16.0913 20.2333 16.1162ZM14.3391 22.828C15.467 22.7533 16.9102 24.0359 17.5652 25.7045C17.7713 26.24 17.8805 26.7754 17.8805 27.2486C17.8805 28.7305 16.8253 29.3157 15.5277 28.5437C14.23 27.7716 13.1748 25.9411 13.1627 24.4593C13.1627 24.4593 13.1627 24.4593 13.1627 24.4468C13.1627 23.5005 13.6114 22.8778 14.3391 22.828ZM25.8122 22.828C26.5399 22.8778 26.9886 23.5005 26.9886 24.4593C26.9886 25.9411 25.9335 27.7716 24.6236 28.5437C23.326 29.3157 22.2708 28.7305 22.2708 27.2486C22.2708 25.7668 23.326 23.9363 24.6236 23.1642C25.036 22.9152 25.4483 22.8031 25.8122 22.828ZM8.46917 25.9162C9.59707 25.8415 11.0403 27.1241 11.6952 28.7927C11.9014 29.3282 12.0105 29.8636 12.0105 30.3368C12.0105 31.8186 10.9554 32.3915 9.64558 31.6194C8.34789 30.8474 7.29275 29.0169 7.29275 27.535C7.29275 26.5886 7.74149 25.966 8.46917 25.9162ZM2.59922 29.0667C3.72713 28.992 5.17036 30.2746 5.82527 31.9432C6.03144 32.4786 6.1406 33.0141 6.1406 33.4873C6.1406 34.9691 5.08546 35.5544 3.78777 34.7823C2.49007 34.0103 1.43494 32.1798 1.42281 30.6979C1.42281 30.6979 1.42281 30.6979 1.42281 30.6855C1.42281 29.7516 1.87154 29.1289 2.59922 29.0667ZM37.5399 29.0667C38.2676 29.1165 38.7164 29.7391 38.7164 30.6979C38.7164 32.1798 37.6612 34.0103 36.3514 34.7823C35.0537 35.5544 33.9986 34.9691 33.9986 33.4873C33.9986 32.0054 35.0537 30.1749 36.3514 29.4029C36.7759 29.1663 37.1761 29.0418 37.5399 29.0667ZM14.3391 36.0275C15.467 35.9528 16.9102 37.2354 17.5652 38.904C17.7713 39.4395 17.8805 39.9749 17.8805 40.4481C17.8805 41.93 16.8253 42.5152 15.5277 41.7432C14.23 40.9711 13.1748 39.1406 13.1627 37.6588C13.1627 37.6588 13.1627 37.6588 13.1627 37.6464C13.1627 36.7 13.6114 36.0774 14.3391 36.0275ZM25.8122 36.0275C26.5399 36.0774 26.9886 36.7 26.9886 37.6588C26.9886 39.1406 25.9335 40.9711 24.6236 41.7432C23.326 42.5152 22.2708 41.93 22.2708 40.4481C22.2708 38.9663 23.326 37.1358 24.6236 36.3638C25.036 36.1147 25.4483 36.0026 25.8122 36.0275Z" fill="url(#paint0_linear)"/>
<defs>
<linearGradient id="paint0_linear" x1="0.161499" y1="22.0027" x2="39.9835" y2="22.0027" gradientUnits="userSpaceOnUse">
<stop stop-color="#5765BC"/>
<stop offset="1" stop-color="#90AFFF"/>
</linearGradient>
</defs>
</svg>
